<?xml version="1.0" encoding="UTF-8"?>
<!DOCTYPE svg PUBLIC "-//W3C//DTD SVG 1.1//EN" "http://www.w3.org/Graphics/SVG/1.1/DTD/svg11.dtd">
<svg version="1.1" xmlns="http://www.w3.org/2000/svg" xmlns:xlink="http://www.w3.org/1999/xlink" x="0" y="0" width="255.118" height="595.276" viewBox="0, 0, 255.118, 595.276">
  <g id="Layer_1">
    <g>
      <path d="M255.618,0.5 L255.618,595.776 L0.5,595.776 L0.5,0.5 L255.618,0.5 z M128.059,180.894 C63.307,180.894 10.816,233.386 10.816,298.138 C10.816,362.89 63.307,415.381 128.059,415.381 C192.811,415.381 245.303,362.89 245.302,298.138 C245.303,233.386 192.811,180.894 128.059,180.894 z" fill="#206F00"/>
      <path d="M255.618,0.5 L255.618,595.776 L0.5,595.776 L0.5,0.5 L255.618,0.5 z M128.059,180.894 C63.307,180.894 10.816,233.386 10.816,298.138 C10.816,362.89 63.307,415.381 128.059,415.381 C192.811,415.381 245.303,362.89 245.302,298.138 C245.303,233.386 192.811,180.894 128.059,180.894 z" fill-opacity="0" stroke="#000000" stroke-width="1"/>
    </g>
  </g>
</svg>
